<svg preserveAspectRatio="none" width="100%" height="100%" overflow="visible" style="display: block;" viewBox="0 0 16 16" fill="none" xmlns="http://www.w3.org/2000/svg">
<g id="Icon">
<path id="Vector" fill-rule="evenodd" clip-rule="evenodd" d="M14.116 6.4256C13.8808 6.18 13.6368 5.9256 13.5448 5.7032C13.46 5.4984 13.4552 5.16 13.4504 4.832C13.4408 4.2224 13.4304 3.5312 12.9496 3.0504C12.4688 2.5696 11.7776 2.5592 11.168 2.5496C10.84 2.5448 10.5016 2.54 10.2968 2.4552C10.0744 2.3632 9.82 2.1192 9.5744 1.884C9.1424 1.4696 8.6528 1 8 1C7.3472 1 6.8576 1.4696 6.4256 1.884C6.18 2.1192 5.9256 2.3632 5.7032 2.4552C5.4984 2.54 5.16 2.5448 4.832 2.5496C4.2224 2.5592 3.5312 2.5696 3.0504 3.0504C2.5696 3.5312 2.5592 4.2224 2.5496 4.832C2.5448 5.16 2.54 5.4984 2.4552 5.7032C2.3632 5.9256 2.1192 6.18 1.884 6.4256C1.4696 6.8576 1 7.3472 1 8C1 8.6528 1.4696 9.1424 1.884 9.5744C2.1192 9.82 2.3632 10.0744 2.4552 10.2968C2.54 10.5016 2.5448 10.84 2.5496 11.168C2.5592 11.7776 2.5696 12.4688 3.0504 12.9496C3.5312 13.4304 4.2224 13.4408 4.832 13.4504C5.16 13.4552 5.4984 13.46 5.7032 13.5448C5.9256 13.6368 6.18 13.8808 6.4256 14.116C6.8576 14.5304 7.3472 15 8 15C8.6528 15 9.1424 14.5304 9.5744 14.116C9.82 13.8808 10.0744 13.6368 10.2968 13.5448C10.5016 13.46 10.84 13.4552 11.168 13.4504C11.7776 13.4408 12.4688 13.4304 12.9496 12.9496C13.4304 12.4688 13.4408 11.7776 13.4504 11.168C13.4552 10.84 13.46 10.5016 13.5448 10.2968C13.6368 10.0744 13.8808 9.82 14.116 9.5744C14.5304 9.1424 15 8.6528 15 8C15 7.3472 14.5304 6.8576 14.116 6.4256ZM11.4416 4.4568C11.364 4.40597 11.2771 4.37094 11.186 4.35372C11.0948 4.33651 11.0011 4.33744 10.9103 4.35646C10.8195 4.37548 10.7334 4.41222 10.6568 4.46458C10.5802 4.51694 10.5147 4.58389 10.464 4.6616L7.056 9.8688L5.4272 8.3608C5.28769 8.24609 5.10961 8.18905 4.92941 8.20133C4.74922 8.21361 4.58053 8.29429 4.45787 8.42687C4.33521 8.55944 4.26786 8.73388 4.26959 8.91449C4.27133 9.09509 4.34202 9.26821 4.4672 9.3984L6.7192 11.4816C6.7272 11.4888 6.7376 11.4904 6.7456 11.4976C6.7656 11.5136 6.7776 11.536 6.7992 11.5512C6.8288 11.5712 6.8632 11.5752 6.896 11.5896C6.93318 11.6086 6.97201 11.6241 7.012 11.636C7.05056 11.6457 7.08992 11.6519 7.1296 11.6544C7.18602 11.6604 7.24297 11.6596 7.2992 11.652C7.32238 11.6478 7.34535 11.6425 7.368 11.636C7.43765 11.6187 7.50428 11.5909 7.5656 11.5536L7.5968 11.5312C7.6384 11.5024 7.6832 11.4816 7.7184 11.4432C7.7432 11.416 7.7544 11.3808 7.7752 11.3504L7.7776 11.3472L11.6456 5.436C11.7472 5.27874 11.7827 5.08781 11.7445 4.90455C11.7063 4.72128 11.5975 4.56043 11.4416 4.4568Z" fill="var(--fill-0, #3D9A62)"/>
</g>
</svg>
